<svg xmlns="http://www.w3.org/2000/svg" xmlns:xlink="http://www.w3.org/1999/xlink"><symbol id="icon-arrow-left" viewBox="0 0 24 24"><path fill-rule="evenodd" clip-rule="evenodd" d="M12.7071 4.29289C13.0976 4.68342 13.0976 5.31658 12.7071 5.70711L6.41421 12L12.7071 18.2929C13.0976 18.6834 13.0976 19.3166 12.7071 19.7071C12.3166 20.0976 11.6834 20.0976 11.2929 19.7071L4.29289 12.7071C3.90237 12.3166 3.90237 11.6834 4.29289 11.2929L11.2929 4.29289C11.6834 3.90237 12.3166 3.90237 12.7071 4.29289Z"/><path fill-rule="evenodd" clip-rule="evenodd" d="M4 12C4 11.4477 4.44772 11 5 11H19C19.5523 11 20 11.4477 20 12C20 12.5523 19.5523 13 19 13H5C4.44772 13 4 12.5523 4 12Z"/></symbol><use xlink:href="#icon-arrow-left" width="24" height="24" y="0"/><view id="icon-arrow-left-view" viewBox="0 0 24 24"/><symbol id="icon-arrow-right" viewBox="0 0 24 24"><path fill-rule="evenodd" clip-rule="evenodd" d="M4.75 12C4.75 11.8619 4.86193 11.75 5 11.75H19C19.1381 11.75 19.25 11.8619 19.25 12C19.25 12.1381 19.1381 12.25 19 12.25H5C4.86193 12.25 4.75 12.1381 4.75 12Z"/><path fill-rule="evenodd" clip-rule="evenodd" d="M11.8232 4.82322C11.9209 4.72559 12.0791 4.72559 12.1768 4.82322L19.1768 11.8232C19.2744 11.9209 19.2744 12.0791 19.1768 12.1768L12.1768 19.1768C12.0791 19.2744 11.9209 19.2744 11.8232 19.1768C11.7256 19.0791 11.7256 18.9209 11.8232 18.8232L18.6464 12L11.8232 5.17678C11.7256 5.07915 11.7256 4.92085 11.8232 4.82322Z"/></symbol><use xlink:href="#icon-arrow-right" width="24" height="24" y="24"/><view id="icon-arrow-right-view" viewBox="0 24 24 24"/><symbol id="icon-check" viewBox="0 0 25 24"><path fill-rule="evenodd" clip-rule="evenodd" d="M20.897 5.29289C21.2876 5.68342 21.2876 6.31658 20.897 6.70711L9.89705 17.7071C9.50652 18.0976 8.87336 18.0976 8.48283 17.7071L3.48283 12.7071C3.09231 12.3166 3.09231 11.6834 3.48283 11.2929C3.87336 10.9024 4.50652 10.9024 4.89705 11.2929L9.18994 15.5858L19.4828 5.29289C19.8734 4.90237 20.5065 4.90237 20.897 5.29289Z"/></symbol><use xlink:href="#icon-check" width="25" height="24" y="48"/><view id="icon-check-view" viewBox="0 48 25 24"/><symbol id="icon-chevron-down" viewBox="0 0 25 24"><path fill-rule="evenodd" clip-rule="evenodd" d="M5.48283 8.29289C5.87336 7.90237 6.50652 7.90237 6.89705 8.29289L12.1899 13.5858L17.4828 8.29289C17.8734 7.90237 18.5065 7.90237 18.897 8.29289C19.2876 8.68342 19.2876 9.31658 18.897 9.70711L12.897 15.7071C12.5065 16.0976 11.8734 16.0976 11.4828 15.7071L5.48283 9.70711C5.09231 9.31658 5.09231 8.68342 5.48283 8.29289Z"/></symbol><use xlink:href="#icon-chevron-down" width="25" height="24" y="72"/><view id="icon-chevron-down-view" viewBox="0 72 25 24"/><symbol id="icon-chevron-left" viewBox="0 0 25 24"><path fill-rule="evenodd" clip-rule="evenodd" d="M15.897 5.29289C16.2876 5.68342 16.2876 6.31658 15.897 6.70711L10.6042 12L15.897 17.2929C16.2876 17.6834 16.2876 18.3166 15.897 18.7071C15.5065 19.0976 14.8734 19.0976 14.4828 18.7071L8.48283 12.7071C8.09231 12.3166 8.09231 11.6834 8.48283 11.2929L14.4828 5.29289C14.8734 4.90237 15.5065 4.90237 15.897 5.29289Z"/></symbol><use xlink:href="#icon-chevron-left" width="25" height="24" y="96"/><view id="icon-chevron-left-view" viewBox="0 96 25 24"/><symbol id="icon-chevron-right" viewBox="0 0 25 24"><path fill-rule="evenodd" clip-rule="evenodd" d="M8.48283 5.29289C8.87336 4.90237 9.50652 4.90237 9.89705 5.29289L15.897 11.2929C16.2876 11.6834 16.2876 12.3166 15.897 12.7071L9.89705 18.7071C9.50652 19.0976 8.87336 19.0976 8.48283 18.7071C8.09231 18.3166 8.09231 17.6834 8.48283 17.2929L13.7757 12L8.48283 6.70711C8.09231 6.31658 8.09231 5.68342 8.48283 5.29289Z"/></symbol><use xlink:href="#icon-chevron-right" width="25" height="24" y="120"/><view id="icon-chevron-right-view" viewBox="0 120 25 24"/><symbol id="icon-chevron-up" viewBox="0 0 25 24"><path fill-rule="evenodd" clip-rule="evenodd" d="M5.48283 15.7071C5.87336 16.0976 6.50652 16.0976 6.89705 15.7071L12.1899 10.4142L17.4828 15.7071C17.8734 16.0976 18.5065 16.0976 18.897 15.7071C19.2876 15.3166 19.2876 14.6834 18.897 14.2929L12.897 8.29289C12.5065 7.90237 11.8734 7.90237 11.4828 8.29289L5.48283 14.2929C5.09231 14.6834 5.09231 15.3166 5.48283 15.7071Z"/></symbol><use xlink:href="#icon-chevron-up" width="25" height="24" y="144"/><view id="icon-chevron-up-view" viewBox="0 144 25 24"/><symbol id="icon-close" viewBox="0 0 16 16"><g stroke-width="1" fill-rule="evenodd"><path d="M4.24378,3.7518725 L7.997,7.505 L11.7519,3.7518725 C11.8877,3.6160425 12.1079,3.6160425 12.2438,3.7518725 C12.3796,3.8877025 12.3796,4.1079425 12.2438,4.2437725 L8.489,7.997 L12.2438,11.7518525 C12.3796,11.8877525 12.3796,12.1079525 12.2438,12.2437525 C12.1079,12.3796525 11.8877,12.3796525 11.7519,12.2437525 L7.997,8.489 L4.24378,12.2437525 C4.10794,12.3796525 3.88771,12.3796525 3.75188,12.2437525 C3.61604,12.1079525 3.61604,11.8877525 3.75188,11.7518525 L7.505,7.997 L3.75188,4.2437725 C3.61604,4.1079425 3.61604,3.8877025 3.75188,3.7518725 C3.88771,3.6160425 4.10794,3.6160425 4.24378,3.7518725 Z"/></g></symbol><use xlink:href="#icon-close" width="16" height="16" y="168"/><view id="icon-close-view" viewBox="0 168 16 16"/><symbol id="icon-facebook" viewBox="0 0 25 24"><path fill-rule="evenodd" clip-rule="evenodd" d="M13.3826 19.405V12.3781H15.7413L16.0944 9.63953H13.3826V7.89108C13.3826 7.09821 13.6027 6.55791 14.7398 6.55791L16.1899 6.55723V4.1079C15.9391 4.07458 15.0783 4 14.0768 4C11.986 4 10.5546 5.2762 10.5546 7.61995V9.63953H8.18994V12.3781H10.5546V19.405H13.3826Z"/></symbol><use xlink:href="#icon-facebook" width="25" height="24" y="184"/><view id="icon-facebook-view" viewBox="0 184 25 24"/><symbol id="icon-file-text" viewBox="0 0 25 24"><path fill-rule="evenodd" clip-rule="evenodd" d="M4.06862 1.87868C4.63123 1.31607 5.39429 1 6.18994 1H15.1899C15.4552 1 15.7095 1.10536 15.897 1.29289L20.897 6.29289C21.0846 6.48043 21.1899 6.73478 21.1899 7V20C21.1899 20.7957 20.8739 21.5587 20.3113 22.1213C19.7487 22.6839 18.9856 23 18.1899 23H6.18994C5.39429 23 4.63123 22.6839 4.06862 22.1213C3.50601 21.5587 3.18994 20.7957 3.18994 20V4C3.18994 3.20435 3.50601 2.44129 4.06862 1.87868ZM6.18994 3C5.92472 3 5.67037 3.10536 5.48283 3.29289C5.2953 3.48043 5.18994 3.73478 5.18994 4V20C5.18994 20.2652 5.2953 20.5196 5.48283 20.7071C5.67037 20.8946 5.92473 21 6.18994 21H18.1899C18.4552 21 18.7095 20.8946 18.897 20.7071C19.0846 20.5196 19.1899 20.2652 19.1899 20V7.41421L14.7757 3H6.18994Z"/><path fill-rule="evenodd" clip-rule="evenodd" d="M14.1899 1C14.7422 1 15.1899 1.44772 15.1899 2V6C15.1899 6.26522 15.2953 6.51957 15.4828 6.70711C15.6704 6.89464 15.9247 7 16.1899 7H20.1899C20.7422 7 21.1899 7.44772 21.1899 8C21.1899 8.55228 20.7422 9 20.1899 9H16.1899C15.3943 9 14.6312 8.68393 14.0686 8.12132C13.506 7.55871 13.1899 6.79565 13.1899 6V2C13.1899 1.44772 13.6377 1 14.1899 1Z"/><path fill-rule="evenodd" clip-rule="evenodd" d="M7.18994 9C7.18994 8.44772 7.63766 8 8.18994 8H10.1899C10.7422 8 11.1899 8.44772 11.1899 9C11.1899 9.55228 10.7422 10 10.1899 10H8.18994C7.63766 10 7.18994 9.55228 7.18994 9Z"/><path fill-rule="evenodd" clip-rule="evenodd" d="M7.18994 13C7.18994 12.4477 7.63766 12 8.18994 12H16.1899C16.7422 12 17.1899 12.4477 17.1899 13C17.1899 13.5523 16.7422 14 16.1899 14H8.18994C7.63766 14 7.18994 13.5523 7.18994 13Z"/><path fill-rule="evenodd" clip-rule="evenodd" d="M7.18994 17C7.18994 16.4477 7.63766 16 8.18994 16H16.1899C16.7422 16 17.1899 16.4477 17.1899 17C17.1899 17.5523 16.7422 18 16.1899 18H8.18994C7.63766 18 7.18994 17.5523 7.18994 17Z"/></symbol><use xlink:href="#icon-file-text" width="25" height="24" y="208"/><view id="icon-file-text-view" viewBox="0 208 25 24"/><symbol id="icon-filter" viewBox="0 0 25 24"><path fill-rule="evenodd" clip-rule="evenodd" d="M1.28284 2.57912C1.4467 2.22596 1.80063 2 2.18995 2H22.19C22.5793 2 22.9332 2.22596 23.0971 2.57912C23.2609 2.93229 23.2049 3.34845 22.9535 3.64573L15.19 12.8261V21C15.19 21.3466 15.0105 21.6684 14.7157 21.8507C14.4209 22.0329 14.0527 22.0494 13.7427 21.8944L9.74274 19.8944C9.40396 19.725 9.18995 19.3788 9.18995 19V12.8261L1.42638 3.64573C1.17499 3.34845 1.11898 2.93229 1.28284 2.57912ZM4.34526 4L10.9535 11.8143C11.1062 11.9948 11.19 12.2236 11.19 12.46V18.382L13.19 19.382V12.46C13.19 12.2236 13.2737 11.9948 13.4264 11.8143L20.0347 4H4.34526Z"/></symbol><use xlink:href="#icon-filter" width="25" height="24" y="232"/><view id="icon-filter-view" viewBox="0 232 25 24"/><symbol id="icon-filters" viewBox="0 0 25 24"><path fill-rule="evenodd" clip-rule="evenodd" d="M10.75 7C10.75 6.58579 11.0858 6.25 11.5 6.25H20.5C20.9142 6.25 21.25 6.58579 21.25 7C21.25 7.41421 20.9142 7.75 20.5 7.75H11.5C11.0858 7.75 10.75 7.41421 10.75 7ZM4.75 17C4.75 16.5858 5.08579 16.25 5.5 16.25H14.5C14.9142 16.25 15.25 16.5858 15.25 17C15.25 17.4142 14.9142 17.75 14.5 17.75H5.5C5.08579 17.75 4.75 17.4142 4.75 17Z"/><path fill-rule="evenodd" clip-rule="evenodd" d="M13.75 17C13.75 14.9289 15.4289 13.25 17.5 13.25C19.5711 13.25 21.25 14.9289 21.25 17C21.25 19.0711 19.5711 20.75 17.5 20.75C15.4289 20.75 13.75 19.0711 13.75 17ZM17.5 14.75C16.2573 14.75 15.25 15.7573 15.25 17C15.25 18.2427 16.2573 19.25 17.5 19.25C18.7427 19.25 19.75 18.2427 19.75 17C19.75 15.7573 18.7427 14.75 17.5 14.75Z"/><path fill-rule="evenodd" clip-rule="evenodd" d="M3.75 7C3.75 4.92894 5.42894 3.25 7.5 3.25C9.57106 3.25 11.25 4.92894 11.25 7C11.25 9.07106 9.57106 10.75 7.5 10.75C5.42894 10.75 3.75 9.07106 3.75 7ZM7.5 4.75C6.25736 4.75 5.25 5.75736 5.25 7C5.25 8.24264 6.25736 9.25 7.5 9.25C8.74264 9.25 9.75 8.24264 9.75 7C9.75 5.75736 8.74264 4.75 7.5 4.75Z"/></symbol><use xlink:href="#icon-filters" width="25" height="24" y="256"/><view id="icon-filters-view" viewBox="0 256 25 24"/><symbol id="icon-link" viewBox="0 0 25 24"><path fill-rule="evenodd" clip-rule="evenodd" d="M12.9652 2.75071C14.0969 1.65776 15.6125 1.05299 17.1857 1.06666C18.7588 1.08033 20.2637 1.71135 21.3762 2.8238C22.4886 3.93625 23.1196 5.44112 23.1333 7.0143C23.147 8.58748 22.5422 10.1031 21.4492 11.2347L21.4371 11.2471L18.4372 14.247C18.4372 14.247 18.4371 14.2471 18.4371 14.2471C17.8288 14.8555 17.0969 15.326 16.2908 15.6267C15.4847 15.9274 14.6233 16.0512 13.7652 15.9898C12.907 15.9283 12.0721 15.683 11.3171 15.2705C10.562 14.858 9.90454 14.2879 9.38919 13.599C9.05839 13.1567 9.14873 12.53 9.59098 12.1992C10.0332 11.8684 10.6599 11.9588 10.9907 12.401C11.3343 12.8603 11.7726 13.2404 12.276 13.5154C12.7793 13.7904 13.3359 13.9539 13.908 13.9949C14.4802 14.0359 15.0544 13.9533 15.5918 13.7528C16.1292 13.5524 16.6172 13.2387 17.0227 12.833L17.0229 12.8329L20.0164 9.83934C20.7414 9.08557 21.1425 8.07771 21.1334 7.03168C21.1243 5.98289 20.7036 4.97964 19.9619 4.23801C19.2203 3.49638 18.2171 3.0757 17.1683 3.06659C16.1218 3.05749 15.1135 3.4589 14.3596 4.18455L12.645 5.88916C12.2533 6.27855 11.6202 6.2767 11.2308 5.88504C10.8414 5.49338 10.8433 4.86021 11.2349 4.47083L12.9549 2.76083L12.9652 2.75071ZM8.08911 8.37328C8.89522 8.07258 9.75657 7.94876 10.6147 8.01022C11.4729 8.07168 12.3078 8.31698 13.0629 8.72949C13.8179 9.142 14.4754 9.71206 14.9907 10.401C15.3215 10.8433 15.2312 11.47 14.7889 11.8008C14.3467 12.1316 13.72 12.0412 13.3892 11.599C13.0456 11.1397 12.6073 10.7596 12.104 10.4846C11.6006 10.2096 11.044 10.0461 10.4719 10.0051C9.89976 9.96413 9.32552 10.0467 8.78812 10.2471C8.25071 10.4476 7.7627 10.7613 7.35719 11.167L7.35706 11.1671L4.36355 14.1606C3.63851 14.9144 3.23746 15.9223 3.24655 16.9683C3.25566 18.0171 3.67634 19.0203 4.41797 19.762C5.1596 20.5036 6.16285 20.9243 7.21164 20.9334C8.2577 20.9425 9.26558 20.5414 10.0193 19.8164L11.7229 18.1129C12.1134 17.7224 12.7465 17.7224 13.1371 18.1129C13.5276 18.5034 13.5276 19.1366 13.1371 19.5271L11.4271 21.2371L11.4147 21.2493C10.2831 22.3422 8.76744 22.947 7.19426 22.9333C5.62108 22.9197 4.11621 22.2886 3.00376 21.1762C1.89131 20.0637 1.2603 18.5589 1.24663 16.9857C1.23296 15.4125 1.83772 13.8969 2.93067 12.7653L2.94285 12.7529L5.94272 9.75302C5.94277 9.75297 5.94281 9.75293 5.94285 9.75289C6.55109 9.14447 7.28305 8.67396 8.08911 8.37328Z"/></symbol><use xlink:href="#icon-link" width="25" height="24" y="280"/><view id="icon-link-view" viewBox="0 280 25 24"/><symbol id="icon-linkedin" viewBox="0 0 25 24"><path d="M8.87807 18.0181H6.38967V9.9863H8.87807V18.0181ZM7.63387 8.89196C6.83496 8.89196 6.18994 8.24456 6.18994 7.44598C6.18994 6.6474 6.83496 6 7.63387 6C8.4295 6 9.07453 6.6474 9.07453 7.44598C9.07453 8.24127 8.4295 8.89196 7.63387 8.89196ZM18.1899 18.0181H15.7048V14.1139C15.7048 13.1839 15.6884 11.9844 14.4115 11.9844C13.1182 11.9844 12.9217 12.9999 12.9217 14.0482V18.0181H10.4399V9.9863H12.8235V11.0839H12.8562C13.1869 10.453 13.9989 9.78584 15.2071 9.78584C17.725 9.78584 18.1899 11.4487 18.1899 13.6111V18.0181Z"/></symbol><use xlink:href="#icon-linkedin" width="25" height="24" y="304"/><view id="icon-linkedin-view" viewBox="0 304 25 24"/><symbol id="icon-plus" viewBox="0 0 25 24"><path fill-rule="evenodd" clip-rule="evenodd" d="M4.18994 12C4.18994 11.4477 4.63766 11 5.18994 11H19.1899C19.7422 11 20.1899 11.4477 20.1899 12C20.1899 12.5523 19.7422 13 19.1899 13H5.18994C4.63766 13 4.18994 12.5523 4.18994 12Z"/><path fill-rule="evenodd" clip-rule="evenodd" d="M12.1899 4C12.7422 4 13.1899 4.44772 13.1899 5V19C13.1899 19.5523 12.7422 20 12.1899 20C11.6377 20 11.1899 19.5523 11.1899 19V5C11.1899 4.44772 11.6377 4 12.1899 4Z"/></symbol><use xlink:href="#icon-plus" width="25" height="24" y="328"/><view id="icon-plus-view" viewBox="0 328 25 24"/><symbol id="icon-right-arrow" viewBox="0 0 24 24"><path fill-rule="evenodd" clip-rule="evenodd" d="M11.2929 4.29289C10.9024 4.68342 10.9024 5.31658 11.2929 5.70711L17.5858 12L11.2929 18.2929C10.9024 18.6834 10.9024 19.3166 11.2929 19.7071C11.6834 20.0976 12.3166 20.0976 12.7071 19.7071L19.7071 12.7071C20.0976 12.3166 20.0976 11.6834 19.7071 11.2929L12.7071 4.29289C12.3166 3.90237 11.6834 3.90237 11.2929 4.29289Z"/><path fill-rule="evenodd" clip-rule="evenodd" d="M20 12C20 11.4477 19.5523 11 19 11H5C4.44771 11 4 11.4477 4 12C4 12.5523 4.44771 13 5 13H19C19.5523 13 20 12.5523 20 12Z"/></symbol><use xlink:href="#icon-right-arrow" width="24" height="24" y="352"/><view id="icon-right-arrow-view" viewBox="0 352 24 24"/><symbol id="icon-settings" viewBox="0 0 25 24"><path fill-rule="evenodd" clip-rule="evenodd" d="M10.4399 7C10.4399 6.58579 10.7757 6.25 11.1899 6.25H20.1899C20.6042 6.25 20.9399 6.58579 20.9399 7C20.9399 7.41421 20.6042 7.75 20.1899 7.75H11.1899C10.7757 7.75 10.4399 7.41421 10.4399 7ZM4.43994 17C4.43994 16.5858 4.77573 16.25 5.18994 16.25H14.1899C14.6042 16.25 14.9399 16.5858 14.9399 17C14.9399 17.4142 14.6042 17.75 14.1899 17.75H5.18994C4.77573 17.75 4.43994 17.4142 4.43994 17Z"/><path fill-rule="evenodd" clip-rule="evenodd" d="M17.1899 14.75C15.9473 14.75 14.9399 15.7574 14.9399 17C14.9399 18.2426 15.9473 19.25 17.1899 19.25C18.4326 19.25 19.4399 18.2426 19.4399 17C19.4399 15.7574 18.4326 14.75 17.1899 14.75ZM13.4399 17C13.4399 14.9289 15.1189 13.25 17.1899 13.25C19.261 13.25 20.9399 14.9289 20.9399 17C20.9399 19.0711 19.261 20.75 17.1899 20.75C15.1189 20.75 13.4399 19.0711 13.4399 17Z"/><path fill-rule="evenodd" clip-rule="evenodd" d="M7.18994 4.75C5.9473 4.75 4.93994 5.75736 4.93994 7C4.93994 8.24264 5.9473 9.25 7.18994 9.25C8.43258 9.25 9.43994 8.24264 9.43994 7C9.43994 5.75736 8.43258 4.75 7.18994 4.75ZM3.43994 7C3.43994 4.92893 5.11887 3.25 7.18994 3.25C9.26101 3.25 10.9399 4.92893 10.9399 7C10.9399 9.07107 9.26101 10.75 7.18994 10.75C5.11887 10.75 3.43994 9.07107 3.43994 7Z"/></symbol><use xlink:href="#icon-settings" width="25" height="24" y="376"/><view id="icon-settings-view" viewBox="0 376 25 24"/><symbol id="icon-trash" viewBox="0 0 25 24"><path fill-rule="evenodd" clip-rule="evenodd" d="M9.52205 3.33211C9.28739 3.56676 9.18994 3.82523 9.18994 4V5H15.1899V4C15.1899 3.82523 15.0925 3.56676 14.8578 3.33211C14.6232 3.09745 14.3647 3 14.1899 3H10.1899C10.0152 3 9.7567 3.09745 9.52205 3.33211ZM17.1899 5V4C17.1899 3.17477 16.7874 2.43324 16.272 1.91789C15.7567 1.40255 15.0152 1 14.1899 1H10.1899C9.36471 1 8.62318 1.40255 8.10783 1.91789C7.59249 2.43324 7.18994 3.17477 7.18994 4V5H3.18994C2.63766 5 2.18994 5.44772 2.18994 6C2.18994 6.55228 2.63766 7 3.18994 7H4.18994V20C4.18994 20.8252 4.59249 21.5668 5.10783 22.0821C5.62318 22.5975 6.36471 23 7.18994 23H17.1899C18.0152 23 18.7567 22.5975 19.272 22.0821C19.7874 21.5668 20.1899 20.8252 20.1899 20V7H21.1899C21.7422 7 22.1899 6.55228 22.1899 6C22.1899 5.44772 21.7422 5 21.1899 5H17.1899ZM6.18994 7V20C6.18994 20.1748 6.28739 20.4332 6.52205 20.6679C6.7567 20.9025 7.01517 21 7.18994 21H17.1899C17.3647 21 17.6232 20.9025 17.8578 20.6679C18.0925 20.4332 18.1899 20.1748 18.1899 20V7H6.18994ZM10.1899 10C10.7422 10 11.1899 10.4477 11.1899 11V17C11.1899 17.5523 10.7422 18 10.1899 18C9.63766 18 9.18994 17.5523 9.18994 17V11C9.18994 10.4477 9.63766 10 10.1899 10ZM14.1899 10C14.7422 10 15.1899 10.4477 15.1899 11V17C15.1899 17.5523 14.7422 18 14.1899 18C13.6377 18 13.1899 17.5523 13.1899 17V11C13.1899 10.4477 13.6377 10 14.1899 10Z"/></symbol><use xlink:href="#icon-trash" width="25" height="24" y="400"/><view id="icon-trash-view" viewBox="0 400 25 24"/><symbol id="icon-x" viewBox="0 0 25 24"><path fill-rule="evenodd" clip-rule="evenodd" d="M18.897 5.29289C19.2876 5.68342 19.2876 6.31658 18.897 6.70711L6.89705 18.7071C6.50652 19.0976 5.87336 19.0976 5.48283 18.7071C5.09231 18.3166 5.09231 17.6834 5.48283 17.2929L17.4828 5.29289C17.8734 4.90237 18.5065 4.90237 18.897 5.29289Z"/><path fill-rule="evenodd" clip-rule="evenodd" d="M5.48283 5.29289C5.87336 4.90237 6.50652 4.90237 6.89705 5.29289L18.897 17.2929C19.2876 17.6834 19.2876 18.3166 18.897 18.7071C18.5065 19.0976 17.8734 19.0976 17.4828 18.7071L5.48283 6.70711C5.09231 6.31658 5.09231 5.68342 5.48283 5.29289Z"/></symbol><use xlink:href="#icon-x" width="25" height="24" y="424"/><view id="icon-x-view" viewBox="0 424 25 24"/></svg>