<svg xmlns="http://www.w3.org/2000/svg" xmlns:xlink="http://www.w3.org/1999/xlink"><symbol id="icon-facebook" viewBox="0 0 48 48"><path d="M43.5 24.1213C43.5 33.7156 36.6617 41.697 27.6253 43.4059V30.4373H31.7853H32.2149L32.2796 30.0127L33.1663 24.1967L33.254 23.6213H32.672H27.6253V20.348C27.6253 19.6238 27.8022 18.9704 28.2019 18.5047C28.5895 18.0531 29.2504 17.704 30.3827 17.704H32.9067H33.4067V17.204V12.252V11.8305L32.9913 11.7592L32.9067 12.252C32.9913 11.7592 32.9912 11.7592 32.9912 11.7592L32.991 11.7592L32.9906 11.7591L32.989 11.7588L32.9834 11.7579L32.9625 11.7544L32.8833 11.7414C32.8145 11.7304 32.7145 11.7147 32.5879 11.6959C32.3347 11.6584 31.9748 11.6085 31.5457 11.5587C30.6899 11.4592 29.5495 11.3587 28.4293 11.3587C26.0427 11.3587 24.015 12.0884 22.5837 13.5301C21.1522 14.9718 20.3747 17.0678 20.3747 19.688V23.62H15.7973H15.2973V24.12V29.9387V30.4387H15.7973H20.3747V43.4059C11.3383 41.697 4.5 33.7156 4.5 24.1213C4.5 13.2813 13.2323 4.5 24 4.5C34.7677 4.5 43.5 13.2813 43.5 24.1213Z"/></symbol><use xlink:href="#icon-facebook" width="48" height="48" y="0"/><view id="icon-facebook-view" viewBox="0 0 48 48"/><symbol id="icon-instagram" viewBox="0 0 48 48"><path fill-rule="evenodd" clip-rule="evenodd" d="M24 6C19.1112 6 18.4992 6.0204 16.5792 6.108C14.6628 6.1956 13.3536 6.5004 12.2088 6.9456C11.0088 7.3968 9.9204 8.1048 9.0204 9.0216C8.10507 9.92056 7.39663 11.0082 6.9444 12.2088C6.5016 13.3536 6.1956 14.664 6.108 16.5804C6.0216 18.4992 6 19.11 6 24C6 28.89 6.0204 29.5008 6.108 31.4208C6.1956 33.3372 6.5004 34.6464 6.9456 35.7912C7.3968 36.9912 8.1048 38.0796 9.0216 38.9796C9.92059 39.8949 11.0082 40.6033 12.2088 41.0556C13.3536 41.4996 14.6628 41.8044 16.5792 41.892C18.4992 41.9796 19.1112 42 24 42C28.8888 42 29.5008 41.9796 31.4208 41.892C33.3372 41.8044 34.6464 41.4996 35.7912 41.0544C36.9912 40.6032 38.0796 39.8952 38.9796 38.9784C39.8949 38.0794 40.6034 36.9918 41.0556 35.7912C41.4996 34.6464 41.8044 33.3372 41.892 31.4208C41.9796 29.5008 42 28.8888 42 24C42 19.1112 41.9796 18.4992 41.892 16.5792C41.8044 14.6628 41.4996 13.3536 41.0544 12.2088C40.6025 11.0077 39.894 9.91959 38.9784 9.0204C38.0794 8.10507 36.9918 7.39663 35.7912 6.9444C34.6464 6.5016 33.336 6.1956 31.4196 6.108C29.5008 6.0216 28.89 6 24 6ZM24 9.2436C28.806 9.2436 29.376 9.2616 31.2744 9.348C33.0288 9.4284 33.9816 9.72 34.6164 9.9684C35.4564 10.2936 36.0564 10.6848 36.6864 11.3136C37.3164 11.9436 37.7064 12.5436 38.0316 13.3836C38.2788 14.0184 38.5716 14.9712 38.652 16.7256C38.7384 18.624 38.7564 19.194 38.7564 24C38.7564 28.806 38.7384 29.376 38.652 31.2744C38.5716 33.0288 38.28 33.9816 38.0316 34.6164C37.7435 35.3983 37.2839 36.1056 36.6864 36.6864C36.1057 37.284 35.3983 37.7437 34.6164 38.0316C33.9816 38.2788 33.0288 38.5716 31.2744 38.652C29.376 38.7384 28.8072 38.7564 24 38.7564C19.1928 38.7564 18.624 38.7384 16.7256 38.652C14.9712 38.5716 14.0184 38.28 13.3836 38.0316C12.6017 37.7435 11.8944 37.2839 11.3136 36.6864C10.7162 36.1055 10.2566 35.3982 9.9684 34.6164C9.7212 33.9816 9.4284 33.0288 9.348 31.2744C9.2616 29.376 9.2436 28.806 9.2436 24C9.2436 19.194 9.2616 18.624 9.348 16.7256C9.4284 14.9712 9.72 14.0184 9.9684 13.3836C10.2936 12.5436 10.6848 11.9436 11.3136 11.3136C11.8943 10.7161 12.6017 10.2564 13.3836 9.9684C14.0184 9.7212 14.9712 9.4284 16.7256 9.348C18.624 9.2616 19.194 9.2436 24 9.2436V9.2436Z"/><path fill-rule="evenodd" clip-rule="evenodd" d="M24 30.006C23.2113 30.006 22.4303 29.8507 21.7016 29.5488C20.9729 29.247 20.3108 28.8046 19.7531 28.2469C19.1954 27.6892 18.753 27.0271 18.4512 26.2984C18.1494 25.5697 17.994 24.7887 17.994 24C17.994 23.2113 18.1494 22.4303 18.4512 21.7016C18.753 20.9729 19.1954 20.3108 19.7531 19.7531C20.3108 19.1954 20.9729 18.753 21.7016 18.4512C22.4303 18.1493 23.2113 17.994 24 17.994C25.5929 17.994 27.1205 18.6268 28.2469 19.7531C29.3732 20.8795 30.006 22.4071 30.006 24C30.006 25.5929 29.3732 27.1205 28.2469 28.2469C27.1205 29.3732 25.5929 30.006 24 30.006V30.006ZM24 14.748C21.5462 14.748 19.1929 15.7228 17.4578 17.4578C15.7228 19.1929 14.748 21.5462 14.748 24C14.748 26.4538 15.7228 28.8071 17.4578 30.5422C19.1929 32.2772 21.5462 33.252 24 33.252C26.4538 33.252 28.8071 32.2772 30.5421 30.5422C32.2772 28.8071 33.252 26.4538 33.252 24C33.252 21.5462 32.2772 19.1929 30.5421 17.4578C28.8071 15.7228 26.4538 14.748 24 14.748V14.748ZM35.9436 14.58C35.9436 15.16 35.7132 15.7163 35.303 16.1264C34.8929 16.5366 34.3366 16.767 33.7566 16.767C33.1766 16.767 32.6203 16.5366 32.2102 16.1264C31.8 15.7163 31.5696 15.16 31.5696 14.58C31.5696 14 31.8 13.4437 32.2102 13.0336C32.6203 12.6234 33.1766 12.393 33.7566 12.393C34.3366 12.393 34.8929 12.6234 35.303 13.0336C35.7132 13.4437 35.9436 14 35.9436 14.58"/></symbol><use xlink:href="#icon-instagram" width="48" height="48" y="48"/><view id="icon-instagram-view" viewBox="0 48 48 48"/><symbol id="icon-spiriit" viewBox="0 0 125 41"><path d="M0 25.5h6.2c.4 1.9 2.2 3 4.6 3 2.3 0 3.9-.7 3.9-2.5 0-1.2-.7-2-2.5-2.3l-5.8-1c-4-.7-6-2.6-6-6 0-4.7 4.5-7 9.9-7 5.7 0 9.6 2.6 9.9 7h-6c-.3-1.7-1.7-2.6-4-2.6-2 0-3.6.6-3.6 2.1 0 1 .6 1.7 2.3 2l5.8.9c4.1.7 6.2 2.7 6.2 6.2 0 5.2-4.7 7.6-10.2 7.6C5.2 32.9.6 30.4 0 25.5zM48 21.3c0 6.4-3.7 11.7-9.5 11.7-3.4 0-6.6-1.6-7.7-7.3v14.9h-6.6V10h5.6l.7 6.6c1.4-5.6 4.7-7 8.3-7 5.5 0 9.2 5.2 9.2 11.7zm-6.6 0c0-3.4-2.1-6.4-5.3-6.4-3.3 0-5.3 2.8-5.3 6.4s2 6.3 5.3 6.3c3.2 0 5.3-2.9 5.3-6.3zM60 32.6h-6.6V15.2h-3.3V10H60v22.6zM53.1 3.9c0-2.2 1.6-3.4 3.6-3.4s3.6 1.1 3.6 3.4c0 2.2-1.6 3.3-3.6 3.3-2.1 0-3.6-1.1-3.6-3.3zM80.1 10v5.2h-2.6c-3.9 0-6 2.1-6 6.4v11h-6.6V10h5.4l.6 7c.9-5.2 3.4-7 6.5-7h2.7zM93 32.6h-6.6V15.2h-3.3V10H93v22.6zM86.1 3.9c0-2.2 1.6-3.4 3.6-3.4s3.6 1.1 3.6 3.4c0 2.2-1.6 3.3-3.6 3.3s-3.6-1.1-3.6-3.3zM125 27.1v5.4h-4.7c-4.8 0-7.2-2.5-7.2-7.4v-9.9h-3.3V10h3.3V3.9h6.6v1.3c0 2.3-1.4 4.8-4.9 4.8H125v5.2h-5.2v9c0 1.9 1 2.9 2.8 2.9h2.4z"/><path d="M106.6 32.6H100V15.2h-3.3V10h9.9v22.6zM99.7 3.9c0-2.2 1.6-3.4 3.6-3.4s3.6 1.1 3.6 3.4c0 2.2-1.6 3.3-3.6 3.3s-3.6-1.1-3.6-3.3z"/></symbol><use xlink:href="#icon-spiriit" width="118" height="38" y="96"/><view id="icon-spiriit-view" viewBox="0 96 118 38"/><symbol id="icon-tiktok" viewBox="0 0 48 48"><path d="M36.2311 12.0179C34.0764 10.613 32.5213 8.36524 32.0361 5.74493C31.9313 5.17879 31.8738 4.59614 31.8738 4H24.9969L24.9859 31.5599C24.8703 34.6461 22.3302 37.1232 19.2163 37.1232C18.2485 37.1232 17.3372 36.8812 16.5348 36.459C14.6948 35.4907 13.4356 33.562 13.4356 31.3426C13.4356 28.155 16.029 25.5617 19.2163 25.5617C19.8113 25.5617 20.3821 25.6598 20.922 25.829V18.8085C20.3632 18.7324 19.7955 18.6848 19.2163 18.6848C12.2368 18.6848 6.55882 24.3631 6.55882 31.3426C6.55882 35.6248 8.69832 39.4144 11.9624 41.7059C14.0183 43.1493 16.5192 44 19.2163 44C26.1958 44 31.8738 38.3221 31.8738 31.3426V17.3673C34.5709 19.3032 37.8754 20.444 41.4412 20.444V13.5672C39.5204 13.5672 37.7314 12.9962 36.2311 12.0179"/></symbol><use xlink:href="#icon-tiktok" width="48" height="48" y="134"/><view id="icon-tiktok-view" viewBox="0 134 48 48"/><symbol id="icon-youtube" viewBox="0 0 48 48"><path fill-rule="evenodd" clip-rule="evenodd" d="M39.5841 10.8294C41.3042 11.2915 42.665 12.6523 43.1271 14.3724C43.9743 17.5046 44 24.0001 44 24.0001C44 24.0001 44 30.5213 43.1528 33.6279C42.6906 35.348 41.3299 36.7087 39.6098 37.1709C36.5032 38.0181 24 38.0181 24 38.0181C24 38.0181 11.4968 38.0181 8.39025 37.1709C6.67009 36.7087 5.30937 35.348 4.84724 33.6279C4 30.4957 4 24.0001 4 24.0001C4 24.0001 4 17.5046 4.82157 14.3981C5.2837 12.6779 6.64442 11.3172 8.36457 10.8551C11.4711 10.0078 23.9743 9.98218 23.9743 9.98218C23.9743 9.98218 36.4775 9.98218 39.5841 10.8294ZM30.3671 24.0002L19.9949 30.0079V17.9925L30.3671 24.0002Z"/></symbol><use xlink:href="#icon-youtube" width="48" height="48" y="182"/><view id="icon-youtube-view" viewBox="0 182 48 48"/></svg>