<?xml version="1.0" encoding="UTF-8"?>
<svg width="512px" height="512px" viewBox="0 0 512 512" version="1.1" xmlns="http://www.w3.org/2000/svg" xmlns:xlink="http://www.w3.org/1999/xlink">
	<title>favicon</title>
	<g id="favicon" stroke="none" stroke-width="1" fill="none" fill-rule="evenodd">
		<g id="Logo-/-Dark" transform="translate(14.88, 47)">
			<g id="Logo-Dark" transform="translate(-0.88, -0)">
				<rect id="Rectangle" fill="#FF3366" x="132" y="0" width="35.2" height="418" rx="4"></rect>
				<path
					d="M90.2,103.84 L90.2,342.32 C90.2,347.600026 89.833337,354.566623 89.1,363.22 C88.366663,371.873377 86.0200198,380.233293 82.06,388.3 C78.0999802,396.366707 71.7933766,403.333304 63.14,409.2 C54.4866234,415.066696 42.2400792,418 26.4,418 C21.999978,418 17.6733546,417.70667 13.42,417.12 C9.1666454,416.53333 4.9866872,415.506674 0.88,414.04 L5.28,377.52 C7.6266784,378.400004 10.266652,379.206663 13.2,379.94 C16.133348,380.673337 18.9199868,381.04 21.56,381.04 C32.4133876,381.04 39.9666454,377.593368 44.22,370.7 C48.4733546,363.806632 50.6,353.760066 50.6,340.56 L50.6,103.84 L90.2,103.84 Z"
					id="Path"
					fill="#3A3A3A"
				></path>
				<path
					d="M41.36,29.04 C41.36,21.1199604 44.2199714,14.3000286 49.94,8.58 C55.6600286,2.8599714 62.4799604,0 70.4,0 C78.3200396,0 85.1399714,2.8599714 90.86,8.58 C96.5800286,14.3000286 99.44,21.1199604 99.44,29.04 C99.44,36.9600396 96.5800286,43.7799714 90.86,49.5 C85.1399714,55.2200286 78.3200396,58.08 70.4,58.08 C62.4799604,58.08 55.6600286,55.2200286 49.94,49.5 C44.2199714,43.7799714 41.36,36.9600396 41.36,29.04 L41.36,29.04 Z"
					id="Path"
					fill="#FC3F73"
				></path>
				<path
					d="M317.68,0.88 C339.68011,0.88 358.966584,3.3733084 375.54,8.36 C392.113416,13.3466916 406.486606,20.0199582 418.66,28.38 C430.833394,36.7400418 440.953293,46.3466124 449.02,57.2 C457.086707,68.0533876 463.466643,79.1999428 468.16,90.64 C472.853357,102.080057 476.226656,113.519943 478.28,124.96 C480.333344,136.400057 481.36,146.959952 481.36,156.64 C481.36,176.586766 477.69337,195.87324 470.36,214.5 C463.02663,233.12676 452.173405,249.699927 437.8,264.22 C423.426595,278.740073 405.606773,290.399956 384.34,299.2 C363.073227,308.000044 338.506806,312.4 310.64,312.4 L209,312.4 L209,0.88 L317.68,0.88 Z M314.6,40.48 L251.24,40.48 L251.24,272.8 L304.48,272.8 C322.373423,272.8 339.313253,270.380024 355.3,265.54 C371.286747,260.699976 385.293273,253.440048 397.32,243.76 C409.346727,234.079952 418.879965,221.980073 425.92,207.46 C432.960035,192.939927 436.48,176.000097 436.48,156.64 C436.48,146.666617 434.866683,135.006733 431.64,121.66 C428.413317,108.313267 422.326711,95.6267268 413.38,83.6 C404.433289,71.5732732 392.040079,61.3800418 376.2,53.02 C360.359921,44.6599582 339.826793,40.48 314.6,40.48 Z"
					id="Combined-Shape"
					fill="#424242"
				></path>
			</g>
		</g>
	</g>
</svg>
