<?xml version="1.0" standalone="no"?>
<!DOCTYPE svg PUBLIC "-//W3C//DTD SVG 20010904//EN"
 "http://www.w3.org/TR/2001/REC-SVG-20010904/DTD/svg10.dtd">
<svg version="1.0" xmlns="http://www.w3.org/2000/svg"
 width="512.000000pt" height="512.000000pt" viewBox="0 0 512.000000 512.000000"
 preserveAspectRatio="xMidYMid meet">
<metadata>
Created by potrace 1.14, written by Peter Selinger 2001-2017
</metadata>
<g transform="translate(0.000000,512.000000) scale(0.100000,-0.100000)"
fill="#000000" stroke="none">
<path d="M755 4637 c-17 -6 -49 -23 -72 -39 -156 -106 -172 -319 -32 -450 116
-108 292 -102 402 14 48 51 63 81 75 145 20 113 -23 219 -117 286 -75 54 -173
71 -256 44z"/>
<path d="M1472 4638 c-17 -17 -17 -4139 0 -4156 18 -18 312 -17 327 2 17 20
17 4132 0 4152 -15 19 -309 20 -327 2z"/>
<path d="M2278 4642 l-48 -3 0 -1553 c0 -1472 1 -1554 18 -1558 29 -6 1091 -1
1190 6 530 38 1008 304 1267 706 88 135 187 365 208 485 33 179 38 226 39 348
0 211 -32 398 -107 608 -47 131 -150 317 -238 428 -54 68 -205 205 -280 255
-200 133 -472 233 -707 260 -132 15 -1170 29 -1342 18z m1202 -406 c289 -32
519 -137 700 -318 178 -178 281 -407 316 -703 12 -98 7 -268 -11 -365 -51
-284 -209 -530 -442 -689 -33 -22 -65 -41 -71 -41 -6 0 -12 -4 -14 -8 -9 -24
-277 -127 -379 -147 -189 -37 -227 -39 -594 -40 l-330 0 -2 1155 c-1 665 2
1157 7 1160 13 8 744 5 820 -4z"/>
<path d="M649 3608 c0 -2 -2 -563 -4 -1248 -2 -1345 0 -1293 -54 -1398 -44
-85 -124 -124 -248 -117 -43 2 -93 9 -111 15 -18 7 -35 11 -37 9 -2 -2 -13
-82 -25 -178 -17 -141 -19 -176 -8 -182 31 -20 122 -33 235 -35 192 -3 305 29
415 117 141 113 204 248 224 485 4 58 9 2330 5 2507 l-1 27 -195 0 c-107 0
-195 -1 -196 -2z"/>
</g>
</svg>
