<svg width="48" height="48" viewBox="0 0 48 48" fill="none" xmlns="http://www.w3.org/2000/svg">
<path d="M43.5 24.1213C43.5 33.7156 36.6617 41.697 27.6253 43.4059V30.4373H31.7853H32.2149L32.2796 30.0127L33.1663 24.1967L33.254 23.6213H32.672H27.6253V20.348C27.6253 19.6238 27.8022 18.9704 28.2019 18.5047C28.5895 18.0531 29.2504 17.704 30.3827 17.704H32.9067H33.4067V17.204V12.252V11.8305L32.9913 11.7592L32.9067 12.252C32.9913 11.7592 32.9912 11.7592 32.9912 11.7592L32.991 11.7592L32.9906 11.7591L32.989 11.7588L32.9834 11.7579L32.9625 11.7544L32.8833 11.7414C32.8145 11.7304 32.7145 11.7147 32.5879 11.6959C32.3347 11.6584 31.9748 11.6085 31.5457 11.5587C30.6899 11.4592 29.5495 11.3587 28.4293 11.3587C26.0427 11.3587 24.015 12.0884 22.5837 13.5301C21.1522 14.9718 20.3747 17.0678 20.3747 19.688V23.62H15.7973H15.2973V24.12V29.9387V30.4387H15.7973H20.3747V43.4059C11.3383 41.697 4.5 33.7156 4.5 24.1213C4.5 13.2813 13.2323 4.5 24 4.5C34.7677 4.5 43.5 13.2813 43.5 24.1213Z" fill="#172B37" stroke="#172B37"/>
</svg>
